<svg xmlns="http://www.w3.org/2000/svg" xmlns:xlink="http://www.w3.org/1999/xlink" viewBox="0 0 804.11 804.47"><defs><style>.cls-1{isolation:isolate;}.cls-2{fill:url(#linear-gradient);}.cls-3{fill:url(#linear-gradient-2);}.cls-4{fill:url(#New_Gradient_Swatch_3);}.cls-5{fill:url(#New_Gradient_Swatch_3-2);}.cls-6{fill:url(#linear-gradient-3);}.cls-7{fill:url(#New_Gradient_Swatch_3-3);}.cls-8{fill:url(#New_Gradient_Swatch_3-4);}.cls-9{fill:url(#linear-gradient-4);}.cls-10{mix-blend-mode:color-dodge;}.cls-11{fill:url(#linear-gradient-5);}.cls-12{fill:url(#linear-gradient-6);}.cls-13{fill:url(#linear-gradient-7);}.cls-14{fill:url(#linear-gradient-8);}.cls-15{fill:url(#linear-gradient-9);}.cls-16{fill:url(#linear-gradient-10);}.cls-17{fill:url(#linear-gradient-11);}.cls-18{fill:url(#linear-gradient-12);}</style><linearGradient id="linear-gradient" x1="-4966.38" y1="446.1" x2="-4605.31" y2="446.1" gradientTransform="translate(-4465.92 1089.85) rotate(180)" gradientUnits="userSpaceOnUse"><stop offset="0" stop-color="#984995"/><stop offset="0.31" stop-color="#654293"/><stop offset="0.61" stop-color="#3e5fa9"/><stop offset="0.69" stop-color="#4063ab"/><stop offset="0.76" stop-color="#446fb1"/><stop offset="0.84" stop-color="#4c83bb"/><stop offset="0.92" stop-color="#579ec9"/><stop offset="0.99" stop-color="#66c2da"/><stop offset="1" stop-color="#67c5dc"/></linearGradient><linearGradient id="linear-gradient-2" x1="-5199.51" y1="771.64" x2="-4605.31" y2="771.64" gradientTransform="translate(-4465.92 1089.85) rotate(180)" gradientUnits="userSpaceOnUse"><stop offset="0" stop-color="#774494"/><stop offset="0.45" stop-color="#4d58a3"/><stop offset="0.61" stop-color="#3e5fa9"/><stop offset="0.69" stop-color="#4063ab"/><stop offset="0.76" stop-color="#446fb1"/><stop offset="0.84" stop-color="#4c83bb"/><stop offset="0.92" stop-color="#579ec9"/><stop offset="0.99" stop-color="#66c2da"/><stop offset="1" stop-color="#67c5dc"/></linearGradient><linearGradient id="New_Gradient_Swatch_3" x1="-5341.22" y1="270.85" x2="-5230.46" y2="270.85" gradientTransform="translate(-4465.92 1089.85) rotate(180)" gradientUnits="userSpaceOnUse"><stop offset="0" stop-color="#654293"/><stop offset="0.61" stop-color="#3e5fa9"/><stop offset="0.69" stop-color="#4063ab"/><stop offset="0.76" stop-color="#446fb1"/><stop offset="0.84" stop-color="#4c83bb"/><stop offset="0.92" stop-color="#579ec9"/><stop offset="0.99" stop-color="#66c2da"/><stop offset="1" stop-color="#67c5dc"/></linearGradient><linearGradient id="New_Gradient_Swatch_3-2" x1="-4782.28" y1="270.72" x2="-4671.53" y2="270.72" xlink:href="#New_Gradient_Swatch_3"/><linearGradient id="linear-gradient-3" x1="877.93" y1="212.97" x2="691.65" y2="363.57" gradientUnits="userSpaceOnUse"><stop offset="0.18" stop-color="#654293"/><stop offset="0.61" stop-color="#3e5fa9"/><stop offset="0.69" stop-color="#4063ab"/><stop offset="0.76" stop-color="#446fb1"/><stop offset="0.84" stop-color="#4c83bb"/><stop offset="0.92" stop-color="#579ec9"/><stop offset="0.99" stop-color="#66c2da"/><stop offset="1" stop-color="#67c5dc"/></linearGradient><linearGradient id="New_Gradient_Swatch_3-3" x1="-4782.34" y1="830.04" x2="-4671.63" y2="830.04" xlink:href="#New_Gradient_Swatch_3"/><linearGradient id="New_Gradient_Swatch_3-4" x1="-5407.22" y1="657.11" x2="-5046.33" y2="657.11" xlink:href="#New_Gradient_Swatch_3"/><linearGradient id="linear-gradient-4" x1="894.48" y1="366.03" x2="462.48" y2="829.74" gradientUnits="userSpaceOnUse"><stop offset="0.18" stop-color="#794494"/><stop offset="0.47" stop-color="#4f57a3"/><stop offset="0.58" stop-color="#3e5fa9"/><stop offset="0.66" stop-color="#4063ab"/><stop offset="0.75" stop-color="#446fb1"/><stop offset="0.83" stop-color="#4c83bb"/><stop offset="0.91" stop-color="#579ec9"/><stop offset="0.99" stop-color="#66c2da"/><stop offset="1" stop-color="#67c5dc"/></linearGradient><linearGradient id="linear-gradient-5" x1="138.38" y1="643.74" x2="501.46" y2="643.74" gradientUnits="userSpaceOnUse"><stop offset="0" stop-color="#fff"/><stop offset="0.01" stop-color="#fbfbfb"/><stop offset="0.13" stop-color="#c1c1c1"/><stop offset="0.25" stop-color="#8e8e8e"/><stop offset="0.37" stop-color="#636363"/><stop offset="0.49" stop-color="#3f3f3f"/><stop offset="0.62" stop-color="#242424"/><stop offset="0.74" stop-color="#101010"/><stop offset="0.87" stop-color="#050505"/><stop offset="1" stop-color="#010101"/></linearGradient><linearGradient id="linear-gradient-6" x1="138.4" y1="318.21" x2="734.6" y2="318.21" xlink:href="#linear-gradient-5"/><linearGradient id="linear-gradient-7" x1="763.54" y1="819" x2="876.33" y2="819" xlink:href="#linear-gradient-5"/><linearGradient id="linear-gradient-8" x1="204.63" y1="819.13" x2="317.37" y2="819.13" xlink:href="#linear-gradient-5"/><linearGradient id="linear-gradient-9" x1="763.46" y1="259.91" x2="876.19" y2="259.91" xlink:href="#linear-gradient-5"/><linearGradient id="linear-gradient-10" x1="204.72" y1="259.79" x2="317.44" y2="259.79" xlink:href="#linear-gradient-5"/><linearGradient id="linear-gradient-11" x1="579.42" y1="432.73" x2="942.33" y2="432.73" xlink:href="#linear-gradient-5"/><linearGradient id="linear-gradient-12" x1="345.35" y1="758.97" x2="942.49" y2="758.97" xlink:href="#linear-gradient-5"/></defs><g class="cls-1"><g id="Layer_1" data-name="Layer 1"><path class="cls-2" d="M347.48,420.81a64.31,64.31,0,0,0-.27,6.8c.48,31.67-11.87,64.27-34.75,86.64-11.09,10.93-22.13,21.82-32.89,33.07a102.17,102.17,0,0,1-83.26,30.41c-1.72-.17-3.45-.26-5.17-.3-29.55-.68-57.85,21.93-50.6,53.43,7.15,31.06,16.31,66.81,69.77,65.94,1.72,0,3.35.65,5,.86,32.74,4.24,63.13,21.1,86.07,44.53q17.58,18.33,34.6,37.2c21.38,24.12,38.08,54,43.67,85.92.34,1.91.77,3.86,1.31,5.84,4.52,16.6,14.91,31.43,27,43.43,11.35,11.25,25.68,21.46,41.44,25,31.58,7,52-21.61,51-50.18-1.19-36.43-32.94-67-68.75-71.57l-1.27-.15c-30.42-3.36-57.59-20-78.24-42.08-16.2-17.65-31.94-35.68-48.6-52.91C283,701.15,265.5,674.28,262,644.08c0-.12,0-.25,0-.38s0-.25-.05-.38c-3.49-28,6-54.53,25.21-75.38,15-15.94,29.74-32.14,45.44-47.41,22.19-21.74,52.77-33.23,83.33-34.39.48,0,1,0,1.44-.06,39.25-1.95,74.9-32.77,75.5-73.39a64.9,64.9,0,0,0-69.9-65.64C385.07,349.86,351,383,347.48,420.81Z" transform="translate(-138.38 -137.16)"/><path class="cls-3" d="M659.13,347.15a69,69,0,0,0-7.19-.29c-33.13.36-68.62-11.49-92-35.87-10.93-11.32-21.73-22.77-32.67-34.08-21-22.29-31.7-52.24-27.45-82.8.23-1.66.39-3.35.49-5,1.1-20.15-9.56-42.17-29.7-48.69-22.82-7.38-55.07,4.5-72,19.58-9.87,8.77-14,21.17-17.53,33.93-3.26,11.67-1.32,22.88-4.9,34.72-7.74,25.6-22.31,49.4-40.34,69.06Q318.62,316.47,301,334.83c-22.68,23.09-52.88,39.89-85,44.86-1.94.3-3.88.95-5.94,1.22-43.25,5.64-62.44,36.42-69.5,67.63-2.93,12.94-.11,26.66,9.41,36.24,10.65,10.73,26.16,14.2,40.64,13.39,35.26-2,66.53-31.5,71.65-66.69.05-.41.11-.82.16-1.22,3.73-29.77,21.1-56.42,41.66-77.53,16.85-17.06,32.74-35,49.05-52.53,20.53-21.66,47.29-38.42,77.41-41.81l.38-.05.39,0c28.17-3.2,54.93,6.31,75.29,26.31,15.49,15.67,30.57,31.75,46.17,47.31a119.52,119.52,0,0,1,35.11,81.32c0,.45,0,.91,0,1.36,1.58,40.58,37.88,71.14,77.34,72,37,.82,71-26.16,68.23-65.12C730.7,383.53,696.58,350.64,659.13,347.15Z" transform="translate(-138.38 -137.16)"/><path class="cls-4" d="M769.61,844.61c12.79-32.94,42.85-63.05,75.82-75.77,6.29-2.42,22.26-9,28.26-2,5.55,6.43-4.73,18.32-8.31,23-10.58,13.9-23.34,26.48-35.76,38.89s-25,25.22-38.93,35.8c-4.77,3.63-16.58,13.76-23,8.08C760.75,866.54,767.15,851,769.61,844.61Z" transform="translate(-138.38 -137.16)"/><path class="cls-5" d="M215.52,789.84c-3.48-4.57-13.86-16.56-8.31-22.94,6-6.91,21.89-.29,28.24,2.19,33,12.88,63,43.14,75.83,76.12,2.45,6.28,8.89,21.76,2,27.63-6.47,5.49-18.4-4.78-23-8.31-13.9-10.58-26.51-23.35-38.93-35.76S226.11,803.74,215.52,789.84Z" transform="translate(-138.38 -137.16)"/><path class="cls-6" d="M769.49,233.9c-2.44-6.2-8.8-21.59-1.89-27.46,6.51-5.54,18.32,4.61,23.09,8.23,13.9,10.58,26.48,23.36,38.9,35.77s25.2,25,35.79,38.92c3.49,4.59,13.85,16.57,8.13,22.8-6.18,6.74-22.16-.13-28.41-2.63C812.47,296.46,782.35,266.66,769.49,233.9Z" transform="translate(-138.38 -137.16)"/><path class="cls-7" d="M215.52,289.36c10.59-13.91,23.36-26.53,35.79-39s25-25.15,38.9-35.73c4.64-3.53,16.56-13.81,23.09-8.46,6.93,5.69.52,21-1.9,27.11-12.94,32.8-43,62.76-75.62,76-6.33,2.56-22.19,9.48-28.39,2.78C201.67,305.9,212.13,293.82,215.52,289.36Z" transform="translate(-138.38 -137.16)"/><path class="cls-8" d="M648.9,258.59l1.4.17c32.35,3.63,61.53,21.84,83.55,45.17,13,14.11,25.9,28.4,39.42,42.06,22.25,22.75,41.14,51.15,45.17,83.37,0,.13,0,.26,0,.4.06.44.13.88.19,1.32,4.24,30-5.77,58.66-27.68,79.89-11,10.32-22.1,20.45-32.5,31.34-23.85,25.06-57.67,37.64-91.76,37.42H665c-41.15.37-76.48,33.76-77.27,75.26-.74,39.28,30.22,74.56,70.82,71.77,39.35-2.7,73-38.61,75.75-77.51,0-.53.07-1.07.1-1.6,1.54-32.88,14.13-67.13,37.59-90.74C783,546,794,535.19,805.31,524.71c22.8-20.54,52.71-29.84,83.2-27l1.23.11c14.59,1,30.19-2.52,41-13.24,9.71-9.64,12.21-23.08,9.64-36.28-8.69-44.62-29.83-61.79-70.24-67.7-.8-.12-1.57-.37-2.34-.53-33.44-6.9-64.32-24.36-88.28-48.6q-16.43-16.92-32.49-34.2c-22.09-24.17-39.77-54.2-46.66-86.42q-.36-1.63-.81-3.3c-8.1-30.05-37.19-61.18-68-67.94-31.08-6.82-52,20-51.06,48.86C581.64,224.34,614.06,254,648.9,258.59Z" transform="translate(-138.38 -137.16)"/><path class="cls-9" d="M421.07,725.36a65.31,65.31,0,0,0,7.27.21c34.2-1,69.21,12.46,92.6,37.77,10.86,11.68,21.5,23.55,32.32,35.27,21.09,23.32,31.72,53.61,27.62,85-.22,1.7-.4,3.43-.47,5.14-1.26,29.09,19.37,57.91,51.3,50.78,16-3.58,36.91-9.67,48.29-21.22,12-12.22,15.83-31.75,20.14-48.51.42-1.64.78-3.27,1.06-4.87,5.64-32,22.66-62.51,44.23-86.58q17.05-18.66,34.63-36.83c22.91-23.18,52.8-39.69,85.32-43.85,2-.25,3.89-1,6-1,41.17-.25,62.33-34.81,69.06-65.94,6.9-31.86-20.56-53.21-49.87-53.31-35.9-.12-66.48,29.83-71.45,65.08-.06.41-.11.83-.16,1.24-3.8,30.42-21,57.36-41.82,79.16-16.65,17.21-32.52,35.1-48.63,52.81-20.38,21.93-47.48,39.28-77.79,42.52l-.39,0-.39,0c-28.53,3.3-55.63-6.63-76-27.24-15.66-16.35-30.63-33.27-45.83-50a135.53,135.53,0,0,1-35.23-87c0-.47,0-1,0-1.43-1.58-41.17-36.58-74-77.6-74-38.57,0-71.35,30.36-68.75,69.87C349,687.08,382.36,722.13,421.07,725.36Z" transform="translate(-138.38 -137.16)"/><g class="cls-10"><path class="cls-11" d="M458.93,941.63a44.81,44.81,0,0,1-9.75-1.11c-17.56-3.92-32.49-15.89-41.93-25.24-13.74-13.62-23.17-28.8-27.28-43.88-.54-2-1-4-1.33-5.93C372.09,828,351.4,798.32,335.2,780c-11.59-12.84-23.23-25.35-34.57-37.17-24-24.49-54.33-40.2-85.47-44.23a18.51,18.51,0,0,1-2-.41,10.32,10.32,0,0,0-2.8-.44c-24.23.39-41.59-6.6-53.07-21.39-10.33-13.31-14.41-31.06-17.7-45.32-3.82-16.64,2.28-28.6,8.07-35.71,9.85-12.08,26.52-19.33,43.53-19,1.89,0,3.61.14,5.24.3a101.2,101.2,0,0,0,82.45-30.11c11.05-11.55,22.66-23,32.91-33.08,22.06-21.58,34.93-53.7,34.45-85.92a63.76,63.76,0,0,1,.27-6.91c3.57-38.31,37.84-71.8,76.38-74.66a66.37,66.37,0,0,1,50.36,17.82,65.07,65.07,0,0,1,20.62,48.83c-.29,19.5-8.66,37.93-23.58,51.91a84.61,84.61,0,0,1-52.88,22.47l-1.22.05H416c-31.64,1.2-61.77,13.63-82.67,34.1-12,11.63-23.54,24-34.74,36q-5.32,5.7-10.67,11.39c-19.45,21.14-28.31,47.63-24.95,74.58l.09.76c3,26.29,16.93,52.53,41.29,78,11.24,11.62,22.24,23.8,32.88,35.59,5.14,5.69,10.45,11.58,15.73,17.33,22.38,23.87,49.94,38.71,77.61,41.76l1.29.16a82.23,82.23,0,0,1,47.94,24.12c13.41,13.62,21.11,30.82,21.68,48.41.56,17.1-6.35,33.73-18,43.41A37.66,37.66,0,0,1,458.93,941.63ZM210.43,695.79a13.63,13.63,0,0,1,3.18.49,16.76,16.76,0,0,0,1.81.38c31.58,4.08,62.36,20,86.65,44.82,11.36,11.84,23,24.37,34.62,37.22,16.38,18.49,37.29,48.47,43.92,86.42.34,1.91.77,3.84,1.29,5.75,4,14.75,13.27,29.62,26.76,43,9.25,9.16,23.86,20.89,40.95,24.71,12.18,2.71,23.42.17,32.51-7.36,11.22-9.29,17.85-25.31,17.31-41.81-.55-17.08-8.05-33.8-21.1-47.07a80.31,80.31,0,0,0-46.77-23.54l-1.26-.15c-28.14-3.11-56.15-18.16-78.86-42.39-5.28-5.76-10.6-11.66-15.75-17.35-10.63-11.77-21.62-23.94-32.83-35.54-24.67-25.81-38.75-52.45-41.83-79.17l-.1-.76c-3.43-27.54,5.62-54.6,25.47-76.18q5.37-5.7,10.68-11.39c11.22-12,22.81-24.4,34.8-36.06,21.25-20.81,51.86-33.45,84-34.67h.23l1.19-.05a82.5,82.5,0,0,0,51.61-21.93c14.52-13.6,22.67-31.53,23-50.48a63,63,0,0,0-20-47.34A64.37,64.37,0,0,0,423,348c-37.62,2.78-71,35.46-74.54,72.85h0a62.15,62.15,0,0,0-.26,6.69c.49,32.76-12.61,65.42-35.05,87.37-10.23,10.08-21.84,21.51-32.87,33a103.23,103.23,0,0,1-84.09,30.71c-1.58-.15-3.25-.25-5.09-.29-16.37-.38-32.46,6.6-41.93,18.22-5.51,6.76-11.31,18.14-7.67,34,6.69,29.07,15,65.17,66.92,65.17h2Z" transform="translate(-138.38 -137.16)"/><path class="cls-12" d="M186.63,499.27c-10.31,0-25.93-2.22-37.42-13.79-9.23-9.29-12.85-23.19-9.68-37.17,6.3-27.84,23.62-62.31,70.35-68.41a29.57,29.57,0,0,0,3.14-.63c.91-.22,1.84-.44,2.78-.58,30.93-4.79,60.92-20.62,84.45-44.57,11.39-11.82,23.12-24.31,34.86-37.12,18.89-20.6,32.76-44.35,40.12-68.68,1.81-6,2.19-11.93,2.56-17.69.36-5.52.72-11.24,2.33-17,3.64-13,7.73-25.43,17.83-34.41,8.77-7.8,21.23-14.51,34.19-18.42,14.35-4.33,28.13-4.81,38.8-1.36,21.36,6.91,31.46,30.23,30.39,49.69-.09,1.69-.26,3.41-.49,5.1-4.1,29.46,5.81,59.34,27.18,82,5.72,5.91,11.5,12,17.09,17.82q7.77,8.14,15.58,16.26c21.4,22.33,54.86,35.56,89.75,35.56h1.5c2.44,0,4.89.08,7.29.3h0c38.74,3.61,72.48,37.38,75.21,75.28a58.28,58.28,0,0,1-16,44.9c-13.11,13.78-33,21.72-53.22,21.29a83.91,83.91,0,0,1-53.53-21.38c-15.23-13.75-24-32.07-24.79-51.6,0-.4,0-.79,0-1.18v-.19A118.64,118.64,0,0,0,552,332.62c-8.72-8.7-17.41-17.71-25.82-26.41-6.65-6.88-13.52-14-20.36-20.91-20.28-19.92-46.73-29.17-74.46-26l-.77.09c-34.65,3.91-60.89,24.73-76.79,41.5-4.9,5.27-9.84,10.67-14.62,15.89-11.14,12.15-22.65,24.71-34.45,36.66-16.61,17.05-37.28,44.25-41.38,76.95-.05.41-.11.83-.17,1.24-5.22,35.89-37.1,65.56-72.58,67.55C189.41,499.23,188.07,499.27,186.63,499.27ZM455.28,139.15c-20,0-42.72,9.75-56,21.56-9.69,8.62-13.68,20.74-17.23,33.45-1.56,5.57-1.92,11.18-2.26,16.6-.38,5.87-.77,11.94-2.65,18.14-7.44,24.62-21.46,48.63-40.55,69.45-11.76,12.82-23.5,25.32-34.9,37.16-23.84,24.27-54.23,40.3-85.59,45.15-.85.13-1.71.34-2.61.55a31.19,31.19,0,0,1-3.36.68c-45.57,5.94-62.49,39.64-68.65,66.86-3,13.32.4,26.52,9.15,35.32,12.55,12.63,30.37,13.62,39.87,13.09,34.57-1.93,65.63-30.85,70.71-65.84.06-.4.12-.8.17-1.19,4.16-33.26,25.1-60.83,41.93-78.11,11.78-11.93,23.28-24.48,34.4-36.62,4.78-5.22,9.73-10.61,14.64-15.9,16.14-17,42.77-38.14,78-42.12l.77-.09c28.35-3.21,55.38,6.23,76.11,26.59,6.85,6.94,13.73,14.05,20.37,20.94,8.41,8.7,17.1,17.7,25.8,26.38a120.66,120.66,0,0,1,35.41,82v.19c0,.38,0,.77,0,1.15,1.49,38.28,35.74,70.15,76.36,71.06,19.63.45,39-7.29,51.73-20.67a55.56,55.56,0,0,0,15.48-43.38c-2.66-37-35.58-69.9-73.39-73.43-2.34-.21-4.73-.31-7.09-.29-36,.37-70.64-13.13-92.71-36.17q-7.83-8.1-15.58-16.26c-5.59-5.85-11.37-11.9-17.1-17.82-21.8-23.1-31.9-53.58-27.71-83.63.22-1.64.38-3.3.47-4.94,1-18.7-8.6-41.08-29-47.68A49,49,0,0,0,455.28,139.15Z" transform="translate(-138.38 -137.16)"/><path class="cls-13" d="M772.35,875.31a7.88,7.88,0,0,1-5.36-2c-7.19-6.33-1.36-21.28,1.44-28.46l.25-.66c13-33.49,43-63.45,76.4-76.33l.74-.29c7.27-2.82,22.4-8.69,28.63-1.46,5.61,6.51-2.74,17.19-7.22,22.93l-1.05,1.35C856,803.76,843.82,816,832,827.75l-3.83,3.83c-11.66,11.66-23.72,23.72-36.88,33.73l-1.28,1C785.66,869.7,778.45,875.31,772.35,875.31ZM770.55,845l-.26.66c-2.43,6.23-8.12,20.82-2,26.22,5.32,4.69,15.56-3.29,20.49-7.12l1.29-1c13-9.93,25.06-21.94,36.67-33.55l3.83-3.83c11.77-11.75,23.94-23.9,34-37.12l1.06-1.37c3.84-4.91,11.82-15.13,7.29-20.39-5.31-6.17-20.09-.44-26.39,2l-.75.29c-32.4,12.5-62.64,42.72-75.25,75.2Z" transform="translate(-138.38 -137.16)"/><path class="cls-14" d="M308.71,875.44c-6.11,0-13.4-5.69-17.8-9.12l-1.3-1c-13.33-10.15-25.55-22.36-37.36-34.18l-3-3c-11.93-11.91-24.26-24.23-34.51-37.69h0l-1-1.33c-4.16-5.33-12.84-16.42-7.23-22.87,6.24-7.17,21.32-1.25,28.56,1.6l.8.32c33.31,13,63.3,43.1,76.4,76.68l.3.78c2.79,7.1,8.58,21.87,1.38,28A7.76,7.76,0,0,1,308.71,875.44Zm-92.39-86.22c10.17,13.35,22.45,25.62,34.33,37.49l3,3c11.77,11.77,23.94,23.93,37.16,34l1.32,1c4.92,3.84,15.16,11.83,20.47,7.33,6.11-5.19.46-19.59-1.95-25.73l-.31-.78c-12.9-33.09-42.44-62.75-75.25-75.55l-.81-.32c-6.29-2.47-21-8.25-26.32-2.14-4.53,5.2,3.46,15.41,7.3,20.32.39.5.75,1,1,1.35Z" transform="translate(-138.38 -137.16)"/><path class="cls-15" d="M865.46,316c-6.85,0-15.07-3.32-19.85-5.25l-.87-.35c-33.35-13.35-63.25-43.26-76.18-76.19l-.24-.61c-2.79-7.08-8.6-21.83-1.36-28,6.6-5.61,17.3,2.72,23,7.2l1.3,1c13.18,10,25.26,22.11,36.93,33.79l3.81,3.8c11.8,11.79,24,24,34.14,37.29l1,1.33c4.17,5.33,12.84,16.43,7,22.76C872.1,315.17,869,316,865.46,316ZM772.21,205.82a5.9,5.9,0,0,0-4,1.37c-6.14,5.22-.48,19.58,1.93,25.72l.24.61c12.74,32.44,42.2,61.91,75.06,75.06l.87.36c6.28,2.53,21,8.46,26.43,2.53,4.66-5.07-3.31-15.27-7.14-20.17-.39-.5-.75-.95-1-1.35-10.05-13.2-22.21-25.34-34-37.08l-3.8-3.8c-11.63-11.64-23.66-23.67-36.73-33.61l-1.32-1C784.89,211.42,777.71,205.82,772.21,205.82Z" transform="translate(-138.38 -137.16)"/><path class="cls-16" d="M215.35,315.91c-3.45,0-6.55-.85-8.69-3.16-5.8-6.27,2.88-17.37,7.06-22.7.38-.49.72-.92,1-1.31C225,275.31,237.27,263,249.17,251.12l3.05-3.05c11.82-11.82,24-24,37.39-34.21.39-.29.83-.64,1.32-1,5.74-4.48,16.42-12.82,23-7.41,7.24,5.93,1.46,20.51-1.32,27.52l-.29.72c-13,33-42.92,63.09-76.17,76.54l-.92.38C230.44,312.55,222.2,315.91,215.35,315.91Zm.18-26.56.79.6c-.29.39-.64.84-1,1.33-3.83,4.9-11.81,15.09-7.16,20.11,5.44,5.88,20.09-.1,26.35-2.65l.93-.38c32.76-13.26,62.22-42.87,75.06-75.42l.29-.73c2.4-6.05,8-20.23,1.91-25.24-5.35-4.39-15.59,3.61-20.51,7.45l-1.34,1c-13.24,10.07-25.41,22.25-37.19,34l-3,3c-11.85,11.84-24.11,24.09-34.26,37.41Z" transform="translate(-138.38 -137.16)"/><path class="cls-17" d="M654.15,727.9a64.34,64.34,0,0,1-44.71-18.1A73.85,73.85,0,0,1,586.78,655c.79-41.65,35.89-75.85,78.26-76.24h1.71c35.21.24,68.37-13.3,91-37.11,8.27-8.67,17.15-17,25.74-25q3.4-3.18,6.79-6.37c21.86-21.19,31.59-49.26,27.37-79l0-.33c0-.34-.1-.67-.14-1l0-.4c-3.52-28.07-18.62-55.93-44.9-82.8-10.41-10.52-20.59-21.59-30.44-32.3q-4.49-4.89-9-9.77C708.93,279,679.48,263,650.19,259.74l-1.42-.17h0c-17.26-2.3-34.54-10.91-47.41-23.62-13.55-13.4-21.33-30.24-21.91-47.41-.55-16.71,5.95-32.38,17.41-41.92,9.71-8.08,21.77-10.84,34.86-8,30,6.57,60.19,36.73,68.79,68.65.33,1.23.6,2.33.82,3.36,8.13,38,29.73,67.69,46.43,86,10.87,11.69,21.8,23.19,32.47,34.18,24.19,24.47,55.36,41.63,87.76,48.32l1,.23c.45.11.89.22,1.32.29,42.77,6.25,62.7,25.46,71.08,68.5,2.88,14.77-.65,28-9.91,37.18-5.77,5.72-18.84,15.08-41.76,13.52-.39,0-.8-.06-1.2-.1-30.87-2.92-60.15,6.56-82.5,26.7-12,11.13-23.56,22.51-33.23,32.17-22.06,22.19-35.66,55-37.31,90.08,0,.54-.06,1.08-.09,1.62-1.36,19.22-10,38-24.43,53-14.59,15.12-33.15,24.17-52.26,25.48C657.15,727.85,655.64,727.9,654.15,727.9Zm11.52-147.19h-.61c-41.3.38-75.52,33.7-76.28,74.28a71.84,71.84,0,0,0,22,53.36,62.33,62.33,0,0,0,47.71,17.4c18.61-1.28,36.71-10.11,51-24.88,13.86-14.37,22.56-33.22,23.87-51.7,0-.53.07-1.06.09-1.58,1.67-35.54,15.48-68.85,37.89-91.4,9.69-9.67,21.22-21.07,33.3-32.23,22.79-20.52,52.61-30.18,84-27.22l1.21.11c9.5.65,27.34-.18,40.21-13,8.78-8.72,12.1-21.28,9.36-35.38-4.31-22.1-11.59-37.3-22.93-47.83-10.7-9.94-25.47-16-46.48-19.08a13.59,13.59,0,0,1-1.52-.32c-.29-.08-.58-.15-.88-.21C834.8,374.31,803.27,357,778.8,332.2c-10.69-11-21.63-22.52-32.51-34.22-16.87-18.46-38.7-48.51-46.91-86.89-.22-1-.48-2.07-.8-3.26-8.42-31.27-38-60.79-67.28-67.22-12.47-2.73-23.94-.12-33.16,7.55-11,9.14-17.23,24.21-16.69,40.31.56,16.66,8.13,33,21.32,46.05,12.56,12.42,29.42,20.82,46.27,23.07h0l1.37.17c29.76,3.34,59.65,19.49,84.18,45.48q4.51,4.88,9,9.77c9.83,10.7,20,21.76,30.39,32.26,26.59,27.19,41.88,55.43,45.45,84l0,.4c0,.32.09.65.14,1l0,.33c4.3,30.41-5.63,59.09-28,80.75q-3.4,3.21-6.81,6.38c-8.57,8-17.43,16.31-25.67,24.93-22.85,24-56.2,37.73-91.6,37.73h-2Z" transform="translate(-138.38 -137.16)"/><path class="cls-18" d="M622,941.6a37.89,37.89,0,0,1-24.82-9.07c-11.72-9.81-18.54-26.61-17.79-43.86.06-1.55.22-3.21.48-5.22,4-30.38-5.76-60.28-27.37-84.18-4.83-5.23-9.7-10.58-14.42-15.75-5.84-6.41-11.89-13-17.9-19.51-22.6-24.46-56.93-38.47-91.83-37.46a65.5,65.5,0,0,1-7.38-.21c-39-3.25-72.9-38.15-75.51-77.81a64.26,64.26,0,0,1,17.37-48.61,71.82,71.82,0,0,1,52.38-22.32h0c41.74,0,77,33.6,78.57,74.93,0,.47,0,1,.05,1.42a134,134,0,0,0,35,86.33q5.42,6,10.79,12c11.35,12.59,23.08,25.62,35,38.08,20.35,20.61,47,30.18,75.14,26.93l.78-.09c27.17-2.9,54.57-17.89,77.17-42.2l11-12.09c12.2-13.48,24.81-27.43,37.69-40.74,24.22-25.34,38.2-51.78,41.54-78.58.06-.42.11-.84.17-1.27,5.22-37,36.92-65.93,72.23-65.93h.21c17.32.06,33.39,7.22,43,19.15,8,10,10.71,22.18,7.86,35.37-6.94,32.09-29,66.47-70,66.72a15,15,0,0,0-3.38.55,20.22,20.22,0,0,1-2.46.5c-30.77,3.93-60.86,19.4-84.74,43.56-11.39,11.76-23,24.15-34.6,36.8-23.14,25.82-38.76,56.39-44,86.08-.27,1.54-.64,3.2-1.09,4.95s-.91,3.6-1.36,5.43c-3.79,15.19-8.08,32.41-19,43.53-9,9.14-25,16.17-48.78,21.49A45.12,45.12,0,0,1,622,941.6ZM431.91,724.5c34.23,0,67.56,14.11,89.77,38.15,6,6.47,12.06,13.1,17.91,19.52,4.71,5.17,9.59,10.52,14.41,15.75,22,24.35,31.92,54.82,27.88,85.79-.25,1.95-.4,3.56-.47,5-.71,16.63,5.83,32.82,17.08,42.24,9.19,7.69,20.6,10.29,33,7.52,23.43-5.23,39.07-12.08,47.8-20.94,10.56-10.73,14.78-27.67,18.51-42.61q.68-2.76,1.37-5.45c.43-1.7.78-3.31,1.05-4.79,5.28-30.06,21.07-61,44.46-87.08,11.59-12.67,23.25-25.07,34.66-36.85,24.2-24.49,54.71-40.17,85.91-44.15a20,20,0,0,0,2.25-.46,16.93,16.93,0,0,1,3.83-.61c39.87-.24,61.32-33.81,68.09-65.14,2.72-12.58.14-24.23-7.46-33.69-9.23-11.47-24.71-18.35-41.43-18.41-34.4-.11-65.37,28.09-70.46,64.21-.06.41-.11.83-.16,1.23-3.4,27.24-17.56,54.07-42.09,79.73C765,736.8,752.37,750.73,740.19,764.2l-11,12.1c-22.93,24.68-50.78,39.89-78.43,42.84l-.76.09c-28.73,3.33-56-6.45-76.81-27.53-12-12.49-23.71-25.53-35.07-38.13q-5.39-6-10.78-11.94A135.94,135.94,0,0,1,491.88,654c0-.49,0-1,0-1.42-1.55-40.26-35.9-73-76.58-73h0a69.85,69.85,0,0,0-50.92,21.68,62.27,62.27,0,0,0-16.83,47.12c1.21,18.52,9.54,36.66,23.45,51.08s31.82,23.34,50.22,24.87h0a64,64,0,0,0,7.16.2C429.51,724.52,430.71,724.5,431.91,724.5Z" transform="translate(-138.38 -137.16)"/></g></g></g></svg>