<svg id="Layer_2" data-name="Layer 2" xmlns="http://www.w3.org/2000/svg" viewBox="0 0 806.08 806.48"><defs><style>.cls-1{fill:none;stroke:#fff;stroke-miterlimit:10;stroke-width:4px;}</style></defs><path class="cls-1" d="M347.48,420.81a64.31,64.31,0,0,0-.27,6.8c.48,31.67-11.87,64.27-34.75,86.64-11.09,10.93-22.13,21.82-32.89,33.07a102.17,102.17,0,0,1-83.26,30.41c-1.72-.17-3.45-.26-5.17-.3-29.55-.68-57.85,21.93-50.6,53.43,7.15,31.06,16.31,66.81,69.77,65.94,1.72,0,3.35.65,5,.86,32.74,4.24,63.13,21.1,86.07,44.53q17.58,18.33,34.6,37.2c21.38,24.12,38.08,54,43.67,85.92.34,1.91.77,3.86,1.31,5.84,4.52,16.6,14.91,31.43,27,43.43,11.35,11.25,25.68,21.46,41.44,25,31.58,7,52-21.61,51-50.18-1.19-36.43-32.94-67-68.75-71.57l-1.27-.15c-30.42-3.36-57.59-20-78.24-42.08-16.2-17.65-31.94-35.68-48.6-52.91C283,701.15,265.5,674.28,262,644.08c0-.12,0-.25,0-.38s0-.25-.05-.38c-3.49-28,6-54.53,25.21-75.38,15-15.94,29.74-32.14,45.44-47.41,22.19-21.74,52.77-33.23,83.33-34.39.48,0,1,0,1.44-.06,39.25-1.95,74.9-32.77,75.5-73.39a64.9,64.9,0,0,0-69.9-65.64C385.07,349.86,351,383,347.48,420.81Z" transform="translate(-137.39 -136.15)"/><path class="cls-1" d="M659.13,347.15a69,69,0,0,0-7.19-.29c-33.13.36-68.62-11.49-92-35.87-10.93-11.32-21.73-22.77-32.67-34.08-21-22.29-31.7-52.24-27.45-82.8.23-1.66.39-3.35.49-5,1.1-20.15-9.56-42.17-29.7-48.69-22.82-7.38-55.07,4.5-72,19.58-9.87,8.77-14,21.17-17.53,33.93-3.26,11.67-1.32,22.88-4.9,34.72-7.74,25.6-22.31,49.4-40.34,69.06Q318.62,316.47,301,334.83c-22.68,23.09-52.88,39.89-85,44.86-1.94.3-3.88.95-5.94,1.22-43.25,5.64-62.44,36.42-69.5,67.63-2.93,12.94-.11,26.66,9.41,36.24,10.65,10.73,26.16,14.2,40.64,13.39,35.26-2,66.53-31.5,71.65-66.69.05-.41.11-.82.16-1.22,3.73-29.77,21.1-56.42,41.66-77.53,16.85-17.06,32.74-35,49.05-52.53,20.53-21.66,47.29-38.42,77.41-41.81l.38-.05.39,0c28.17-3.2,54.93,6.31,75.29,26.31,15.49,15.67,30.57,31.75,46.17,47.31a119.52,119.52,0,0,1,35.11,81.32c0,.45,0,.91,0,1.36,1.58,40.58,37.88,71.14,77.34,72,37,.82,71-26.16,68.23-65.12C730.7,383.53,696.58,350.64,659.13,347.15Z" transform="translate(-137.39 -136.15)"/><path class="cls-1" d="M769.61,844.61c12.79-32.94,42.85-63.05,75.82-75.77,6.29-2.42,22.26-9,28.26-2,5.55,6.43-4.73,18.32-8.31,23-10.58,13.9-23.34,26.48-35.76,38.89s-25,25.22-38.93,35.8c-4.77,3.63-16.58,13.76-23,8.08C760.75,866.54,767.15,851,769.61,844.61Z" transform="translate(-137.39 -136.15)"/><path class="cls-1" d="M215.52,789.84c-3.48-4.57-13.86-16.56-8.31-22.94,6-6.91,21.89-.29,28.24,2.19,33,12.88,63,43.14,75.83,76.12,2.45,6.28,8.89,21.76,2,27.63-6.47,5.49-18.4-4.78-23-8.31-13.9-10.58-26.51-23.35-38.93-35.76S226.11,803.74,215.52,789.84Z" transform="translate(-137.39 -136.15)"/><path class="cls-1" d="M769.49,233.9c-2.44-6.2-8.8-21.59-1.89-27.46,6.51-5.54,18.32,4.61,23.09,8.23,13.9,10.58,26.48,23.36,38.9,35.77s25.2,25,35.79,38.92c3.49,4.59,13.85,16.57,8.13,22.8-6.18,6.74-22.16-.13-28.41-2.63C812.47,296.46,782.35,266.66,769.49,233.9Z" transform="translate(-137.39 -136.15)"/><path class="cls-1" d="M215.52,289.36c10.59-13.91,23.36-26.53,35.79-39s25-25.15,38.9-35.73c4.64-3.53,16.56-13.81,23.09-8.46,6.93,5.69.52,21-1.9,27.11-12.94,32.8-43,62.76-75.62,76-6.33,2.56-22.19,9.48-28.39,2.78C201.67,305.9,212.13,293.82,215.52,289.36Z" transform="translate(-137.39 -136.15)"/><path class="cls-1" d="M648.9,258.59l1.4.17c32.35,3.63,61.53,21.84,83.55,45.17,13,14.11,25.9,28.4,39.42,42.06,22.25,22.75,41.14,51.15,45.17,83.37,0,.13,0,.26,0,.4.06.44.13.88.19,1.32,4.24,30-5.77,58.66-27.68,79.89-11,10.32-22.1,20.45-32.5,31.34-23.85,25.06-57.67,37.64-91.76,37.42H665c-41.15.37-76.48,33.76-77.27,75.26-.74,39.28,30.22,74.56,70.82,71.77,39.35-2.7,73-38.61,75.75-77.51,0-.53.07-1.07.1-1.6,1.54-32.88,14.13-67.13,37.59-90.74C783,546,794,535.19,805.31,524.71c22.8-20.54,52.71-29.84,83.2-27l1.23.11c14.59,1,30.19-2.52,41-13.24,9.71-9.64,12.21-23.08,9.64-36.28-8.69-44.62-29.83-61.79-70.24-67.7-.8-.12-1.57-.37-2.34-.53-33.44-6.9-64.32-24.36-88.28-48.6q-16.43-16.92-32.49-34.2c-22.09-24.17-39.77-54.2-46.66-86.42q-.36-1.63-.81-3.3c-8.1-30.05-37.19-61.18-68-67.94-31.08-6.82-52,20-51.06,48.86C581.64,224.34,614.06,254,648.9,258.59Z" transform="translate(-137.39 -136.15)"/><path class="cls-1" d="M421.07,725.36a65.31,65.31,0,0,0,7.27.21c34.2-1,69.21,12.46,92.6,37.77,10.86,11.68,21.5,23.55,32.32,35.27,21.09,23.32,31.72,53.61,27.62,85-.22,1.7-.4,3.43-.47,5.14-1.26,29.09,19.37,57.91,51.3,50.78,16-3.58,36.91-9.67,48.29-21.22,12-12.22,15.83-31.75,20.14-48.51.42-1.64.78-3.27,1.06-4.87,5.64-32,22.66-62.51,44.23-86.58q17.05-18.66,34.63-36.83c22.91-23.18,52.8-39.69,85.32-43.85,2-.25,3.89-1,6-1,41.17-.25,62.33-34.81,69.06-65.94,6.9-31.86-20.56-53.21-49.87-53.31-35.9-.12-66.48,29.83-71.45,65.08-.06.41-.11.83-.16,1.24-3.8,30.42-21,57.36-41.82,79.16-16.65,17.21-32.52,35.1-48.63,52.81-20.38,21.93-47.48,39.28-77.79,42.52l-.39,0-.39,0c-28.53,3.3-55.63-6.63-76-27.24-15.66-16.35-30.63-33.27-45.83-50a135.53,135.53,0,0,1-35.23-87c0-.47,0-1,0-1.43-1.58-41.17-36.58-74-77.6-74-38.57,0-71.35,30.36-68.75,69.87C349,687.08,382.36,722.13,421.07,725.36Z" transform="translate(-137.39 -136.15)"/></svg>