<svg id="Layer_2" data-name="Layer 2" xmlns="http://www.w3.org/2000/svg" viewBox="0 0 921.83 728.1"><defs><style>.cls-1{fill:none;stroke:#fff;stroke-miterlimit:10;}</style></defs><path class="cls-1" d="M483.3,835.53v68H231.82c-124.25,0-196-141-122.84-241.43L209.74,523.78l127.07,73.34a207.36,207.36,0,0,0-3.75,39.35C333.06,731.1,396.57,810.88,483.3,835.53Z" transform="translate(-79.08 -175.95)"/><path class="cls-1" d="M540,429.53A206.31,206.31,0,0,0,389.9,494L278.32,429.6,417.17,239c60.68-83.33,185-83.33,245.66,0L804.76,433.82,693.7,497.93A206.37,206.37,0,0,0,540,429.53Z" transform="translate(-79.08 -175.95)"/><path class="cls-1" d="M848.18,903.55h-249V834.8c85.49-25.43,147.8-104.61,147.8-198.33a206.75,206.75,0,0,0-2.77-33.89v0L873.33,528,971,662.12C1044.16,762.56,972.43,903.55,848.18,903.55Z" transform="translate(-79.08 -175.95)"/><path class="cls-1" d="M648.85,683.24a117.75,117.75,0,1,1,0-89.94H598.75a72.78,72.78,0,1,0,0,89.94Z" transform="translate(-79.08 -175.95)"/></svg>